<?xml version="1.0" encoding="UTF-8"?>
<svg width="399px" height="511px" viewBox="0 0 399 511" version="1.1" xmlns="http://www.w3.org/2000/svg" xmlns:xlink="http://www.w3.org/1999/xlink">
    <title>编组 26</title>
    <defs>
        <linearGradient x1="50%" y1="5.61270581%" x2="49.059725%" y2="100%" id="linearGradient-1">
            <stop stop-color="#FFCC00" offset="0%"></stop>
            <stop stop-color="#FF9D2C" offset="14.0925481%"></stop>
            <stop stop-color="#FFD323" stop-opacity="0" offset="100%"></stop>
        </linearGradient>
        <linearGradient x1="50%" y1="0%" x2="50.7862834%" y2="100%" id="linearGradient-2">
            <stop stop-color="#FFD631" offset="0%"></stop>
            <stop stop-color="#FEDE5F" stop-opacity="0" offset="100%"></stop>
        </linearGradient>
        <polygon id="path-3" points="156 0 196.288632 20.9744461 113.294991 271.377543 3.48232739e-15 227.015928"></polygon>
        <polygon id="path-5" points="104.263614 -4.00445625e-14 137.198 35.0107239 90.0694751 112.753091 52.2 107.402998 -1.97813937e-15 72.9921173"></polygon>
        <polygon id="path-7" points="-1.84042558e-13 165.32185 40.2886316 186.296296 127 191.796296 156 34.4108807 103.8 5.0507173e-15"></polygon>
        <linearGradient x1="70.4563297%" y1="9.37361887%" x2="50%" y2="100%" id="linearGradient-9">
            <stop stop-color="#E2CB6B" offset="0%"></stop>
            <stop stop-color="#FFB561" stop-opacity="0" offset="100%"></stop>
        </linearGradient>
        <linearGradient x1="70.4563297%" y1="9.37361887%" x2="50%" y2="100%" id="linearGradient-10">
            <stop stop-color="#FFFCD9" offset="0%"></stop>
            <stop stop-color="#FFF34D" stop-opacity="0" offset="100%"></stop>
        </linearGradient>
    </defs>
    <g id="页面-1" stroke="none" stroke-width="1" fill="none" fill-rule="evenodd">
        <g id="河道洪水推演-方案列表-吴信枝（业务陈莉莉）" transform="translate(-614.000000, -218.000000)">
            <g id="推演地图" transform="translate(614.347384, 213.000000)">
                <g id="编组-22" transform="translate(0.000000, 2.000000)">
                    <g id="编组-26" transform="translate(0.000000, 3.711586)">
                        <path d="M279.300885,226.120878 L306.58003,258.039441 L295.224646,252.588678 C300.798543,272.635357 304.391377,292.516899 306.002699,312.233383 C307.577361,331.501299 307.585677,354.595254 306.029247,381.51521 L306.029247,381.51521 L265.882787,381.515097 C271.094481,339.727924 274.504553,308.797386 276.113341,288.723517 C276.904487,278.851889 277.308466,270.999911 277.32605,265.166101 L277.32605,265.166101 L277.326047,264.383026 C277.306354,258.055715 276.778865,254.226569 275.814748,252.869688 L275.814748,252.869688 L263.845136,258.470308 L279.300885,226.120878 Z" id="路径-11备份" stroke="url(#linearGradient-2)" fill-opacity="0.7" fill="url(#linearGradient-1)" transform="translate(285.645396, 303.613282) rotate(-30.000000) translate(-285.645396, -303.613282) "></path>
                        <path d="M75.3008851,186.120878 L102.58003,218.039441 L91.2246463,212.588678 C96.7985429,232.635357 100.391377,252.516899 102.002699,272.233383 C103.57736,291.501293 103.585677,314.59524 102.029249,341.515185 L102.029249,341.515185 L61.8827871,341.515096 C67.0944815,299.727923 70.5045527,268.797386 72.1133408,248.723517 C72.9044865,238.851889 73.3084663,230.999911 73.3260496,225.166101 L73.3260496,225.166101 L73.3260472,224.383026 C73.3063541,218.055715 72.7788654,214.226569 71.8147475,212.869688 L71.8147475,212.869688 L59.8451364,218.470308 L75.3008851,186.120878 Z" id="路径-11备份-2" stroke="url(#linearGradient-2)" fill-opacity="0.7" fill="url(#linearGradient-1)" transform="translate(81.645396, 263.613282) scale(-1, 1) rotate(-75.000000) translate(-81.645396, -263.613282) "></path>
                        <g id="路径" transform="translate(1.652616, 238.313968)">
                            <mask id="mask-4" fill="white">
                                <use xlink:href="#path-3"></use>
                            </mask>
                            <use id="蒙版" fill-opacity="0" fill="#D8D8D8" xlink:href="#path-3"></use>
                            <path d="M383.32948,-238.325361 L409.195561,-206.158602 L377.884697,-201.076228 L377.253508,-200.980095 C373.96913,-200.46447 371.629236,-199.692223 370.234398,-198.808636 C369.680594,-198.457818 369.484007,-198.285487 369.400209,-198.017586 C368.95337,-196.589035 368.600412,-194.736418 368.327258,-192.420849 L368.327258,-192.420849 L368.227679,-191.522737 L368.091704,-190.083335 C368.063421,-189.752863 368.03637,-189.414801 368.010677,-189.071126 L368.010677,-189.071126 L367.922668,-187.824803 L367.84125,-186.457034 L367.576778,-180.766055 L367.490741,-178.989372 L367.425146,-177.784237 L367.356863,-176.676388 L367.284278,-175.654935 L367.205888,-174.710337 L367.149317,-174.11507 L367.057495,-173.272851 L366.990569,-172.737181 L366.918601,-172.219311 L366.841319,-171.717047 L366.620236,-170.501021 C363.597151,-158.276086 358.118941,-147.644155 353.024926,-141.655906 C346.46923,-133.949386 337.489035,-130.966867 327.239712,-132.063783 C321.348177,-132.694315 315.26459,-134.539064 307.580485,-137.777348 L307.580485,-137.777348 L306.292445,-138.32667 C306.07496,-138.420482 305.856186,-138.515368 305.634383,-138.612081 L305.634383,-138.612081 L304.298237,-139.200622 L302.929433,-139.81499 L302.433632,-140.041249 L300.03381,-140.305389 L299.11655,-140.317091 L297.332497,-140.319873 L296.336493,-140.325806 L293.778004,-140.466952 L292.418785,-140.588776 L291.809596,-140.639531 L290.847905,-140.472376 C290.300293,-140.252801 290.167692,-140.186143 290.052556,-140.043091 L290.052556,-140.043091 L289.484611,-139.241509 C288.55907,-137.896761 287.58223,-135.819663 286.618695,-132.865774 L286.618695,-132.865774 L285.592411,-130.17838 L284.220039,-126.499508 L283.639389,-124.897375 L283.245592,-123.781473 L283.013871,-123.105749 L282.812199,-122.497421 C282.146675,-120.444252 281.566007,-118.418505 281.081216,-116.416136 L281.081216,-116.416136 L281.022753,-114.992557 L281.004945,-114.017003 L280.991004,-111.856237 L280.971925,-109.797492 L280.95277,-108.866578 L280.925432,-107.991504 L280.888871,-107.16359 C280.87492,-106.892118 280.859199,-106.62597 280.841204,-106.358805 L280.841204,-106.358805 L280.781874,-105.576715 C280.494091,-102.47234 280.076339,-100.404018 279.341546,-97.6823213 L279.341546,-97.6823213 L278.93788,-96.193632 L278.794957,-95.6402152 L278.22463,-91.6880733 L278.194565,-90.5089395 L278.185649,-89.2781023 L278.189604,-87.8933191 L278.217561,-85.2513659 L278.350231,-77.5298092 L278.41797,-73.1746145 L278.446998,-70.5252308 L278.462269,-68.0416751 L278.463054,-65.6917291 L278.44863,-63.443712 L278.427388,-61.8045984 L278.396875,-60.1909282 L278.356803,-58.589708 L278.325653,-57.5542284 C278.303472,-56.8622436 278.278479,-56.167325 278.250564,-55.4645484 C277.927791,-47.3386991 277.216014,-40.1957017 275.98343,-33.8828566 C273.232485,-19.7935191 268.600115,-6.75912614 261.21009,0.588114856 C257.956306,3.82306081 254.033091,5.84065804 249.764805,6.73738985 C245.671602,7.59733791 242.105785,7.40666917 237.857667,6.62621504 L237.857667,6.62621504 L236.387514,6.34590265 L235.551417,6.29085505 L234.83696,6.22524034 L234.029416,6.13123546 L233.036779,5.98919363 L232.313559,5.86535326 L231.594322,5.72592972 L230.992451,5.59600853 L230.273557,5.42828188 L229.558102,5.2470515 L228.845156,5.05323489 L228.132921,4.84754316 L227.417572,4.63001692 L226.367187,4.29326872 L225.256087,3.91900261 L224.108753,3.51726633 L222.822007,3.05318775 L219.88859,1.96863876 L218.900473,1.61263939 L218.217496,1.37674682 L217.328143,1.08538119 L216.282002,0.775548598 L214.723914,0.937022094 C202.315119,7.04213619 192.514873,13.1778828 184.128937,20.1418733 L184.128937,20.1418733 L183.965832,20.9031263 L183.816047,21.7384662 C183.139309,25.4071037 182.390078,27.9166821 181.012502,30.6675734 C179.642715,33.4029115 178.13356,35.4711913 175.7549,38.0048989 L175.7549,38.0048989 L175.256512,38.5285504 L174.231471,39.5816639 C173.952982,41.1384424 174.010439,41.9337737 174.307364,43.1777796 L174.307364,43.1777796 L174.78196,45.0175082 L174.981241,45.823021 L175.111221,46.3817554 C175.178188,46.6801206 175.24012,46.9726676 175.298389,47.2666037 C176.877015,55.2299527 175.176366,62.3370702 170.180045,70.252031 L170.180045,70.252031 L169.907189,70.6811808 L169.427173,71.424165 L168.684618,72.5408916 L168.155836,73.3126584 L167.574349,74.1392515 L166.793854,75.2120502 L166.182991,76.0246108 L165.318004,77.1355191 L164.869128,77.6946774 L164.376539,78.2956935 L163.814984,78.9659698 L162.926227,79.9950833 L162.283711,80.7175978 L161.627283,81.4386779 L160.956389,82.1593477 L160.270394,82.8807509 L159.568573,83.6041441 L158.849971,84.331022 L158.044773,85.130705 L157.295118,85.8627454 L156.525853,86.6029046 L155.735717,87.3528945 L154.911479,88.1254852 L153.650501,89.2912658 L152.34046,90.4852124 L151.411237,91.323317 L149.504814,93.0253477 L145.75091,96.3459417 L144.105199,97.8181131 L143.22978,98.6098778 L142.124019,99.6216582 L141.18721,100.495309 L140.255635,101.381404 L139.672658,101.948446 L138.884609,102.732451 L138.374051,103.254893 L137.876564,103.77412 L137.384965,104.300914 L136.995215,104.726484 L136.523566,105.252004 C136.298954,105.504844 136.071214,105.764936 135.837945,106.034996 C134.932457,107.083299 134.026886,107.981259 133.071841,108.79847 C132.731892,109.089356 132.406454,109.352939 132.058135,109.62368 L132.058135,109.62368 L131.222171,111.187207 L131.007878,111.679091 L130.773188,112.231317 L130.527273,112.822528 L130.138177,113.780114 L129.727902,114.814636 L129.299029,115.919278 L129.00446,116.690236 L128.618054,117.715314 L128.637972,119.439567 L128.679802,120.404411 L128.792575,122.603817 L128.848354,124.010432 L128.874725,125.030999 C128.945409,128.852035 128.656152,131.80973 127.82064,135.046403 C127.557408,136.06613 127.275079,137.030174 126.95741,137.984814 L126.95741,137.984814 L126.670935,138.815619 C126.522397,139.231757 126.366899,139.646056 126.201698,140.065676 L126.201698,140.065676 L125.915304,140.773295 L125.701053,141.28269 C125.415488,141.948633 125.102839,142.633676 124.733448,143.402071 L124.733448,143.402071 L124.341378,144.201442 L123.991874,144.893596 L123.556219,145.735303 L123.060009,146.672119 L122.580926,147.56 L121.331031,149.837376 L120.962885,150.51667 L120.633829,151.134031 L120.284151,151.805406 L119.822487,152.730929 L119.475868,153.481938 L119.050719,157.618441 L119.123085,158.116318 L119.219366,158.736821 L119.311647,159.297755 L119.506647,160.427225 L119.934307,162.811588 L120.137942,163.991529 L120.323214,165.140198 L120.507321,166.415487 L120.640645,167.475489 C120.839868,169.165069 120.954019,170.763069 120.980765,172.332634 C121.057444,175.231785 121.331955,177.902981 121.673061,179.568886 C123.736317,183.132732 124.556861,186.491466 124.036787,190.430504 C123.442357,194.277561 122.021939,196.689885 120.019878,198.86504 L120.019878,198.86504 L119.502405,199.407905 L118.855783,200.408642 L118.299122,201.284383 L117.602851,202.401554 L116.977028,203.431007 L116.566355,204.124599 L116.215291,204.735144 L115.940755,205.233076 L115.299544,206.81484 L114.078393,210.543951 L113.783858,211.406907 L113.497237,212.218785 C112.097496,216.105862 110.851507,218.350712 108.32549,220.755479 C105.8544,223.107956 103.501526,224.30787 100.237382,225.292441 L100.237382,225.292441 L99.419383,225.529583 C99.1391955,225.607813 98.8522503,225.685124 98.5546905,225.762889 L98.5546905,225.762889 L97.6534619,225.991935 L95.4120848,226.541006 L92.9976042,227.394268 L89.2665208,227.436985 L84.1683252,227.482048 L79.7270709,227.501077 L77.9328476,227.501058 L75.8333896,227.493108 L73.9494004,227.47615 L71.8958903,227.442081 L70.8233637,227.414686 C65.2678331,227.25003 60.53084,226.582598 55.4625076,225.446196 L55.4625076,225.446196 L52.4438693,224.73434 C52.345444,226.115253 52.1589472,227.296968 51.7471985,228.567652 L51.7471985,228.567652 L46.4416866,245.73334 L16.6854552,233.51511 L21.2427386,218.760418 L21.6282529,217.338855 L23.5850732,209.709839 L23.8755661,208.631923 L24.1604308,207.602414 C24.2076621,207.434255 24.2547359,207.267983 24.3023421,207.101273 L24.3023421,207.101273 L24.5823157,206.138135 C25.9947245,201.370367 27.3577494,198.21313 29.5047958,195.565801 L29.5047958,195.565801 L29.9813408,194.871992 C30.6064702,193.939238 31.3402229,193.055109 32.2252161,192.218609 C35.9145734,188.731412 40.7047275,187.301883 47.4827634,186.967593 C50.6269419,186.812523 53.5770424,187.362801 56.7592031,188.433057 L56.7592031,188.433057 L57.9050702,188.831387 L58.5334289,189.066044 L59.367654,189.396768 L60.5839106,189.9045 L63.1916702,191.026166 L64.0897561,191.408469 L64.86131,191.727721 L65.5006761,191.981264 L68.8772909,192.750919 L69.4659481,192.741946 L70.7875563,192.752783 L72.0053281,192.795216 L73.1091729,192.852001 L75.4631221,193.003205 L78.9743472,193.250225 L80.1675462,193.324255 L80.8837493,193.362609 L81.5438513,193.392326 L82.1538099,193.413536 L82.7177383,193.426361 L83.5038226,193.430168 L84.0071375,193.421946 C84.4749301,193.40173 84.7528597,193.386222 84.9475304,193.371279 L84.9475304,193.371279 L85.3457376,192.314081 C85.7925289,191.012672 86.3145823,189.96775 87.0556154,188.6774 L87.0556154,188.6774 L87.427288,188.041951 L87.9099874,187.238062 C87.8055138,186.802313 87.7681626,186.632646 87.729792,186.449412 C87.3399089,184.516851 87.1984241,182.859929 87.3617915,181.044534 C87.4703946,179.8377 87.6195277,178.844173 87.8559647,177.729065 L87.8559647,177.729065 L88.0242649,176.976554 L88.3313732,175.734152 L88.8803178,173.633056 C89.0256279,172.435925 89.0079697,172.135194 88.9727255,171.795526 L88.9727255,171.795526 L88.9023951,171.19615 L88.8362414,170.700514 L88.5817894,169.127096 L88.0674186,166.248749 L87.8221097,164.823025 L87.6593277,163.82487 L87.5030171,162.805257 L87.3181262,161.470804 L87.1955088,160.459415 C86.7405953,156.409135 86.8187356,153.082718 87.4807208,149.328033 C88.1897098,145.30675 89.3102879,141.957189 91.2822769,137.888729 L91.2822769,137.888729 L91.6579993,137.127705 L92.1652848,136.131233 L92.885389,134.763839 L93.709076,133.244626 L94.6978782,131.441739 L95.1643428,130.576503 L95.6195703,129.70986 L96.2881531,128.349762 L96.9273703,125.155605 L96.9103852,124.638602 L96.8846467,124.076423 L96.7753539,121.9295 L96.7352352,121.030903 L96.7006083,120.080337 L96.6766421,119.149323 L96.6643767,118.03682 L96.6678081,117.322402 L96.6818148,116.588238 C96.7855705,112.860874 97.3518779,109.781536 98.5819687,106.458939 L98.5819687,106.458939 L98.7933634,105.492757 L99.2789558,102.977383 L99.4511327,102.13246 L99.62204,101.345798 C100.174534,98.8953521 100.767075,97.190722 101.87657,95.1682491 C103.516155,92.1794851 105.272358,90.1310605 107.900293,87.7615397 L107.900293,87.7615397 L108.665157,87.0838398 L109.065834,86.7368837 L110.306743,85.6727985 L110.928844,85.1229228 C111.39449,84.7003114 111.73352,84.3599583 112.037843,84.0077898 L112.037843,84.0077898 L112.620826,83.338766 L113.272838,82.6035064 L113.930812,81.8759389 L114.597802,81.1533846 L115.406052,80.2975252 L116.318478,79.3567988 L117.167453,78.5030983 L118.145269,77.5434726 L118.983402,76.7379795 L119.773009,75.991515 L120.605622,75.2154932 L121.898057,74.0288953 L123.284436,72.7748183 L124.892686,71.3372472 L129.066633,67.6433302 L129.912304,66.8887524 L131.122699,65.7998796 L132.253042,64.7711677 L133.319795,63.7866989 L133.982269,63.167134 L134.612947,62.5702528 L135.274139,61.9358195 L136.109805,61.1170886 L136.601152,60.6267563 L137.131506,60.089489 L137.620936,59.5832207 L138.02768,59.1536913 L138.495276,58.6503932 L138.958825,58.141336 L139.318032,57.7336776 L139.663136,57.3352306 L140.0487,56.8791985 L140.552857,56.2608003 L140.903516,55.817705 L141.573333,54.9315226 L142.181824,54.0829573 L142.65144,53.3966118 L143.11589,52.6904335 L143.393123,51.4831351 C141.66703,44.4394701 141.660497,38.3313808 143.470405,30.4933389 L143.470405,30.4933389 L143.634175,29.7999782 C144.782639,25.0419921 146.787636,21.5165707 150.266438,17.6914612 L150.266438,17.6914612 L150.864005,17.0461241 L151.555929,16.3210793 L152.470122,15.3808943 L152.830935,13.3231376 L152.968082,12.5712359 L153.144944,11.6563916 C154.421181,5.29566806 156.431732,1.09918367 160.750907,-2.7126452 C172.481562,-13.0653726 185.978342,-21.6537039 203.191883,-29.9359661 C209.198901,-32.826231 215.262778,-33.283614 222.214596,-31.7063397 L222.214596,-31.7063397 L223.071861,-31.5023877 L223.680939,-31.3480815 C224.005414,-31.263395 224.333262,-31.1743873 224.669171,-31.0798086 L224.669171,-31.0798086 L225.644529,-30.7960037 L226.698875,-30.469758 L227.599201,-30.1774399 L229.015835,-29.6938603 L230.023467,-29.3351759 L233.052316,-28.2181743 L234.378162,-27.7473148 L234.978309,-27.5429394 L235.525143,-27.3629246 L236.248917,-27.6538084 L236.585456,-28.121726 C237.454934,-29.4534035 237.594588,-29.7071361 237.710536,-29.9525669 L237.710536,-29.9525669 L238.945807,-33.3248088 C239.172691,-33.991548 239.396353,-34.700993 239.615441,-35.4511805 L239.615441,-35.4511805 L239.880229,-36.3854934 C240.449244,-38.4539733 240.993397,-40.8317206 241.507258,-43.549092 L241.507258,-43.549092 L241.743044,-44.831746 L241.90372,-45.7496368 L242.074949,-46.7948366 L242.195,-47.5832422 L242.309768,-48.3884502 L242.45557,-49.4973956 L242.627715,-50.9555094 L242.790446,-52.512054 L242.915131,-53.8409004 L243.036067,-55.25533 L243.183595,-57.1599891 L243.387051,-60.118831 L243.591864,-63.4672972 L243.834838,-67.8429131 L244.328562,-77.2672651 L244.50966,-80.437596 L244.65443,-82.7834572 L244.801282,-84.9817732 L244.952201,-87.0522309 L245.06932,-88.5338904 L245.190732,-89.963694 L245.317233,-91.3495359 L245.404936,-92.2544506 L245.541948,-93.5873237 L245.686287,-94.8987208 L245.78724,-95.7672394 L246.11317,-98.400604 C246.672574,-102.774867 247.311926,-107.089235 248.020503,-111.319498 L248.020503,-111.319498 L247.803687,-113.455037 C247.693653,-114.56458 247.646082,-115.607931 247.680246,-116.66187 C247.079812,-118.326195 246.728111,-119.702822 246.584162,-121.122034 C246.319152,-124.645372 247.046623,-127.002226 248.266533,-129.336107 C248.80417,-130.364693 249.394244,-131.271001 250.112282,-132.256037 L250.112282,-132.256037 L250.494602,-132.771466 L250.876441,-133.271814 C251.767777,-135.437274 252.766583,-136.973172 254.002973,-138.425991 L254.002973,-138.425991 L254.347348,-139.285742 L254.537159,-140.041648 L255.142173,-142.55558 L255.272493,-143.090432 C255.473915,-143.727927 255.558846,-143.969005 255.653246,-144.216177 C261.086253,-158.44166 272.574703,-169.041156 282.466701,-172.356266 C287.973289,-174.201691 295.32771,-175.024307 301.254436,-174.501783 C304.616432,-174.205377 307.518091,-173.479509 310.589833,-172.283869 C310.953782,-172.142206 311.315371,-171.996154 311.694539,-171.838054 L311.694539,-171.838054 L312.471554,-171.50793 L316.06493,-169.905009 C316.452349,-169.731882 316.83259,-169.567989 317.201727,-169.414855 L317.201727,-169.414855 L317.857162,-169.149416 C320.207019,-168.221435 323.313736,-167.830807 326.060664,-167.968128 L326.060664,-167.968128 L326.712459,-168.007522 L327.67624,-168.615429 L328.04534,-169.057679 C330.353415,-171.876003 332.831321,-176.812031 334.542043,-183.790055 L334.542043,-183.790055 L334.620845,-185.406465 L334.583622,-186.709042 L334.529319,-187.793737 L334.448419,-189.060954 L334.317103,-190.881916 L334.191797,-192.710925 L334.118626,-193.92971 L334.08014,-194.680502 L334.050192,-195.387899 L334.029032,-196.057345 L334.016914,-196.694238 L334.014097,-197.30392 L334.020837,-197.891669 L334.037382,-198.462697 L334.063964,-199.022164 L334.100413,-199.5705 C334.114388,-199.754337 334.130107,-199.938007 334.148056,-200.126927 L334.148056,-200.126927 L334.205926,-200.682501 L334.274331,-201.245407 L334.398873,-202.175799 L334.590074,-203.489542 C334.663768,-203.948049 334.744194,-204.396315 334.837204,-204.857659 C335.21877,-206.750287 335.761976,-208.591462 336.545161,-210.463493 C338.477877,-215.083218 341.655441,-219.315008 346.241836,-223.078553 C349.508272,-225.758954 353.783542,-228.194556 359.144088,-230.473568 L359.144088,-230.473568 L360.26017,-230.939374 C361.204993,-231.326578 362.18191,-231.709395 363.193867,-232.089245 L363.193867,-232.089245 L364.417425,-232.540839 C364.624339,-232.615945 364.832555,-232.690901 365.044484,-232.766565 L365.044484,-232.766565 L366.314631,-233.212773 C367.173143,-233.509576 368.052621,-233.804179 368.95533,-234.097489 L368.95533,-234.097489 L370.319601,-234.534184 C370.54994,-234.606832 370.781606,-234.679365 371.016536,-234.752384 L371.016536,-234.752384 L372.428342,-235.184949 C372.904832,-235.328885 373.386662,-235.472407 373.875606,-235.616056 L373.875606,-235.616056 L375.35128,-236.043762 L383.32948,-238.325361 Z" stroke-opacity="0.5" stroke="#FFD118" fill-opacity="0.300617351" fill="#FFD118" fill-rule="nonzero" mask="url(#mask-4)"></path>
                        </g>
                        <g id="路径备份-2" transform="translate(261.452616, 0.000000)">
                            <mask id="mask-6" fill="white">
                                <use xlink:href="#path-5"></use>
                            </mask>
                            <use id="蒙版" fill-opacity="0" fill="#D8D8D8" xlink:href="#path-5"></use>
                            <path d="M123.52948,-0.0113931586 L149.395561,32.155366 L118.084697,37.2377392 L117.453508,37.3338723 C114.16913,37.8494971 111.829236,38.6217449 110.434398,39.505332 C109.880594,39.8561492 109.684007,40.0284802 109.600209,40.2963819 C109.15337,41.7249322 108.800412,43.5775498 108.527258,45.8931189 L108.527258,45.8931189 L108.427679,46.7912303 L108.291704,48.2306321 C108.263421,48.5611044 108.23637,48.8991662 108.210677,49.2428411 L108.210677,49.2428411 L108.122668,50.4891648 L108.04125,51.856933 L107.776778,57.5479123 L107.690741,59.3245956 L107.625146,60.5297309 L107.556863,61.6375794 L107.484278,62.6590324 L107.405888,63.6036307 L107.349317,64.1988978 L107.257495,65.041117 L107.190569,65.5767868 L107.118601,66.0946564 L107.041319,66.5969206 L106.820236,67.812947 C103.797151,80.0378811 98.3189414,90.6698124 93.2249258,96.6580612 C86.6692304,104.364582 77.6890348,107.3471 67.4397119,106.250184 C61.5481773,105.619653 55.4645902,103.774903 47.7804854,100.536619 L47.7804854,100.536619 L46.4924449,99.9872979 C46.2749598,99.8934856 46.056186,99.7985995 45.8343827,99.7018865 L45.8343827,99.7018865 L44.4982371,99.1133457 L43.1294332,98.4989775 L42.6336323,98.2727184 L40.2338102,98.0085781 L39.3165499,97.9968762 L37.5324968,97.9940946 L36.5364932,97.9881613 L33.9780036,97.8470154 L32.6187851,97.7251917 L32.0095963,97.6744369 L31.0479051,97.8415917 C30.5002932,98.061166 30.3676924,98.127825 30.2525565,98.2708769 L30.2525565,98.2708769 L29.6846113,99.0724581 C28.75907,100.417207 27.7822301,102.494305 26.8186948,105.448193 L26.8186948,105.448193 L25.7924112,108.135587 L24.4200391,111.81446 L23.8393887,113.416592 L23.4455923,114.532494 L23.2138707,115.208219 L23.0121992,115.816546 C22.346675,117.869716 21.7660068,119.895462 21.2812161,121.897832 L21.2812161,121.897832 L21.2227535,123.321411 L21.2049448,124.296965 L21.1910039,126.45773 L21.1719255,128.516475 L21.1527696,129.44739 L21.1254315,130.322463 L21.0888713,131.150377 C21.0749203,131.42185 21.0591987,131.687997 21.0412037,131.955162 L21.0412037,131.955162 L20.9818741,132.737253 C20.6940912,135.841628 20.2763385,137.90995 19.5415462,140.631646 L19.5415462,140.631646 L19.1378803,142.120335 L18.9949571,142.673752 L18.4246296,146.625894 L18.3945647,147.805028 L18.385649,149.035865 L18.3896045,150.420648 L18.4175607,153.062602 L18.5502307,160.784158 L18.6179701,165.139353 L18.6469982,167.788737 L18.6622692,170.272292 L18.6630539,172.622238 L18.64863,174.870255 L18.6273884,176.509369 L18.5968749,178.123039 L18.5568028,179.724259 L18.5256532,180.759739 C18.5034721,181.451724 18.478479,182.146643 18.4505635,182.849419 C18.1277906,190.975268 17.4160135,198.118266 16.1834298,204.431111 C13.4324851,218.520448 8.80011524,231.554841 1.41008984,238.902082 C-1.84369383,242.137028 -5.76690866,244.154626 -10.0351953,245.051357 C-14.1283977,245.911305 -17.694215,245.720637 -21.9423326,244.940183 L-21.9423326,244.940183 L-23.4124863,244.65987 L-24.2485831,244.604823 L-24.9630397,244.539208 L-25.770584,244.445203 L-26.7632212,244.303161 L-27.4864414,244.179321 L-28.2056779,244.039897 L-28.8075488,243.909976 L-29.5264431,243.742249 L-30.2418982,243.561019 L-30.954844,243.367202 L-31.6670792,243.161511 L-32.3824282,242.943984 L-33.4328128,242.607236 L-34.5439131,242.23297 L-35.6912475,241.831234 L-36.9779933,241.367155 L-39.9114102,240.282606 L-40.8995274,239.926607 L-41.5825038,239.690714 L-42.4718574,239.399349 L-43.5179981,239.089516 L-45.0760855,239.25099 C-57.4848807,245.356104 -67.2851269,251.49185 -75.6710633,258.455841 L-75.6710633,258.455841 L-75.8341676,259.217094 L-75.983953,260.052434 C-76.6606912,263.721071 -77.4099219,266.23065 -78.7874979,268.981541 C-80.1572853,271.716879 -81.6664396,273.785159 -84.0450999,276.318866 L-84.0450999,276.318866 L-84.5434879,276.842518 L-85.5685293,277.895631 C-85.8470184,279.45241 -85.7895611,280.247741 -85.4926356,281.491747 L-85.4926356,281.491747 L-85.01804,283.331476 L-84.8187594,284.136989 L-84.6887795,284.695723 C-84.6218118,284.994088 -84.5598804,285.286635 -84.5016115,285.580571 C-82.9229848,293.54392 -84.623634,300.651038 -89.6199554,308.565998 L-89.6199554,308.565998 L-89.8928114,308.995148 L-90.3728274,309.738132 L-91.1153816,310.854859 L-91.644164,311.626626 L-92.2256509,312.453219 L-93.0061461,313.526018 L-93.6170093,314.338578 L-94.4819959,315.449487 L-94.930872,316.008645 L-95.4234607,316.609661 L-95.9850161,317.279937 L-96.8737725,318.309051 L-97.5162886,319.031565 L-98.1727166,319.752645 L-98.8436107,320.473315 L-99.529606,321.194718 L-100.231427,321.918112 L-100.950029,322.64499 L-101.755227,323.444673 L-102.504882,324.176713 L-103.274147,324.916872 L-104.064283,325.666862 L-104.888521,326.439453 L-106.149499,327.605233 L-107.45954,328.79918 L-108.388763,329.637284 L-110.295186,331.339315 L-114.04909,334.659909 L-115.694801,336.132081 L-116.57022,336.923845 L-117.675981,337.935626 L-118.61279,338.809277 L-119.544365,339.695372 L-120.127342,340.262414 L-120.915391,341.046418 L-121.425949,341.56886 L-121.923436,342.088088 L-122.415035,342.614881 L-122.804785,343.040452 L-123.276434,343.565971 C-123.501046,343.818811 -123.728786,344.078903 -123.962055,344.348964 C-124.867543,345.397266 -125.773114,346.295226 -126.728159,347.112437 C-127.068108,347.403324 -127.393546,347.666906 -127.741865,347.937647 L-127.741865,347.937647 L-128.577829,349.501174 L-128.792122,349.993058 L-129.026812,350.545284 L-129.272727,351.136495 L-129.661823,352.094082 L-130.072098,353.128604 L-130.500971,354.233246 L-130.79554,355.004204 L-131.181946,356.029282 L-131.162028,357.753534 L-131.120198,358.718379 L-131.007425,360.917785 L-130.951646,362.324399 L-130.925275,363.344966 C-130.854591,367.166003 -131.143848,370.123697 -131.97936,373.36037 C-132.242592,374.380097 -132.524921,375.344141 -132.84259,376.298781 L-132.84259,376.298781 L-133.129065,377.129586 C-133.277603,377.545724 -133.433101,377.960023 -133.598302,378.379644 L-133.598302,378.379644 L-133.884696,379.087262 L-134.098947,379.596657 C-134.384512,380.2626 -134.697161,380.947643 -135.066552,381.716039 L-135.066552,381.716039 L-135.458622,382.515409 L-135.808126,383.207563 L-136.243781,384.049271 L-136.739991,384.986086 L-137.219074,385.873968 L-138.468969,388.151343 L-138.837115,388.830638 L-139.166171,389.447998 L-139.515849,390.119373 L-139.977513,391.044897 L-140.324132,391.795906 L-140.749281,395.932409 L-140.676915,396.430286 L-140.580634,397.050788 L-140.488353,397.611722 L-140.293353,398.741193 L-139.865693,401.125555 L-139.662058,402.305497 L-139.476786,403.454165 L-139.292679,404.729454 L-139.159355,405.789457 C-138.960132,407.479036 -138.845981,409.077036 -138.819235,410.646601 C-138.742556,413.545753 -138.468045,416.216949 -138.126939,417.882853 C-136.063683,421.446699 -135.243139,424.805434 -135.763213,428.744472 C-136.357643,432.591528 -137.778061,435.003853 -139.780122,437.179007 L-139.780122,437.179007 L-140.297595,437.721872 L-140.944217,438.72261 L-141.500878,439.59835 L-142.197149,440.715521 L-142.822972,441.744975 L-143.233645,442.438567 L-143.584709,443.049112 L-143.859245,443.547043 L-144.500456,445.128808 L-145.721607,448.857919 L-146.016142,449.720874 L-146.302763,450.532752 C-147.702504,454.41983 -148.948493,456.66468 -151.47451,459.069447 C-153.9456,461.421923 -156.298474,462.621838 -159.562618,463.606409 L-159.562618,463.606409 L-160.380617,463.84355 C-160.660805,463.921781 -160.94775,463.999091 -161.245309,464.076856 L-161.245309,464.076856 L-162.146538,464.305902 L-164.387915,464.854973 L-166.802396,465.708236 L-170.533479,465.750952 L-175.631675,465.796016 L-180.072929,465.815045 L-181.867152,465.815026 L-183.96661,465.807076 L-185.8506,465.790118 L-187.90411,465.756048 L-188.976636,465.728653 C-194.532167,465.563998 -199.26916,464.896566 -204.337492,463.760163 L-204.337492,463.760163 L-207.356131,463.048308 C-207.454556,464.429221 -207.641053,465.610936 -208.052801,466.88162 L-208.052801,466.88162 L-213.358313,484.047307 L-243.114545,471.829077 L-238.557261,457.074386 L-238.171747,455.652823 L-236.214927,448.023806 L-235.924434,446.94589 L-235.639569,445.916381 C-235.592338,445.748222 -235.545264,445.581951 -235.497658,445.41524 L-235.497658,445.41524 L-235.217684,444.452103 C-233.805276,439.684334 -232.442251,436.527097 -230.295204,433.879769 L-230.295204,433.879769 L-229.818659,433.185959 C-229.19353,432.253206 -228.459777,431.369076 -227.574784,430.532577 C-223.885427,427.045379 -219.095272,425.615851 -212.317237,425.281561 C-209.173058,425.126491 -206.222958,425.676768 -203.040797,426.747025 L-203.040797,426.747025 L-201.89493,427.145354 L-201.266571,427.380011 L-200.432346,427.710735 L-199.216089,428.218467 L-196.60833,429.340134 L-195.710244,429.722436 L-194.93869,430.041689 L-194.299324,430.295231 L-190.922709,431.064887 L-190.334052,431.055913 L-189.012444,431.06675 L-187.794672,431.109184 L-186.690827,431.165969 L-184.336878,431.317172 L-180.825653,431.564192 L-179.632454,431.638223 L-178.916251,431.676577 L-178.256149,431.706294 L-177.64619,431.727503 L-177.082262,431.740329 L-176.296177,431.744136 L-175.792863,431.735914 C-175.32507,431.715698 -175.04714,431.700189 -174.85247,431.685246 L-174.85247,431.685246 L-174.454262,430.628049 C-174.007471,429.32664 -173.485418,428.281718 -172.744385,426.991367 L-172.744385,426.991367 L-172.372712,426.355918 L-171.890013,425.55203 C-171.994486,425.11628 -172.031837,424.946614 -172.070208,424.76338 C-172.460091,422.830818 -172.601576,421.173897 -172.438208,419.358502 C-172.329605,418.151668 -172.180472,417.15814 -171.944035,416.043033 L-171.944035,416.043033 L-171.775735,415.290521 L-171.468627,414.04812 L-170.919682,411.947024 C-170.774372,410.749892 -170.79203,410.449161 -170.827275,410.109493 L-170.827275,410.109493 L-170.897605,409.510117 L-170.963759,409.014482 L-171.218211,407.441064 L-171.732581,404.562716 L-171.97789,403.136993 L-172.140672,402.138838 L-172.296983,401.119224 L-172.481874,399.784772 L-172.604491,398.773382 C-173.059405,394.723103 -172.981264,391.396686 -172.319279,387.642001 C-171.61029,383.620718 -170.489712,380.271157 -168.517723,376.202696 L-168.517723,376.202696 L-168.142001,375.441673 L-167.634715,374.4452 L-166.914611,373.077806 L-166.090924,371.558593 L-165.102122,369.755706 L-164.635657,368.890471 L-164.18043,368.023828 L-163.511847,366.66373 L-162.87263,363.469572 L-162.889615,362.952569 L-162.915353,362.39039 L-163.024646,360.243467 L-163.064765,359.344871 L-163.099392,358.394305 L-163.123358,357.463291 L-163.135623,356.350787 L-163.132192,355.636369 L-163.118185,354.902206 C-163.01443,351.174842 -162.448122,348.095504 -161.218031,344.772906 L-161.218031,344.772906 L-161.006637,343.806724 L-160.521044,341.291351 L-160.348867,340.446427 L-160.17796,339.659765 C-159.625466,337.20932 -159.032925,335.50469 -157.92343,333.482217 C-156.283845,330.493453 -154.527642,328.445028 -151.899707,326.075507 L-151.899707,326.075507 L-151.134843,325.397807 L-150.734166,325.050851 L-149.493257,323.986766 L-148.871156,323.43689 C-148.40551,323.014279 -148.06648,322.673926 -147.762157,322.321757 L-147.762157,322.321757 L-147.179174,321.652734 L-146.527162,320.917474 L-145.869188,320.189906 L-145.202198,319.467352 L-144.393948,318.611493 L-143.481522,317.670766 L-142.632547,316.817066 L-141.654731,315.85744 L-140.816598,315.051947 L-140.026991,314.305482 L-139.194378,313.529461 L-137.901943,312.342863 L-136.515564,311.088786 L-134.907314,309.651215 L-130.733367,305.957298 L-129.887696,305.20272 L-128.677301,304.113847 L-127.546958,303.085135 L-126.480205,302.100666 L-125.817731,301.481102 L-125.187053,300.88422 L-124.525861,300.249787 L-123.690195,299.431056 L-123.198848,298.940724 L-122.668494,298.403456 L-122.179064,297.897188 L-121.77232,297.467659 L-121.304724,296.964361 L-120.841175,296.455304 L-120.481968,296.047645 L-120.136864,295.649198 L-119.7513,295.193166 L-119.247143,294.574768 L-118.896484,294.131672 L-118.226667,293.24549 L-117.618176,292.396925 L-117.14856,291.710579 L-116.68411,291.004401 L-116.406877,289.797103 C-118.13297,282.753438 -118.139503,276.645348 -116.329595,268.807306 L-116.329595,268.807306 L-116.165825,268.113946 C-115.017361,263.35596 -113.012364,259.830538 -109.533562,256.005429 L-109.533562,256.005429 L-108.935995,255.360092 L-108.244071,254.635047 L-107.329878,253.694862 L-106.969065,251.637105 L-106.831918,250.885203 L-106.655056,249.970359 C-105.378819,243.609636 -103.368268,239.413151 -99.0490926,235.601322 C-87.3184379,225.248595 -73.8216582,216.660264 -56.608117,208.378001 C-50.6010994,205.487736 -44.5372218,205.030353 -37.585404,206.607628 L-37.585404,206.607628 L-36.7281388,206.81158 L-36.1190611,206.965886 C-35.7945855,207.050572 -35.4667378,207.13958 -35.1308291,207.234159 L-35.1308291,207.234159 L-34.1554713,207.517964 L-33.1011248,207.84421 L-32.2007986,208.136528 L-30.7841651,208.620107 L-29.7765334,208.978792 L-26.7476836,210.095793 L-25.4218383,210.566653 L-24.8216908,210.771028 L-24.2748571,210.951043 L-23.5510833,210.660159 L-23.2145436,210.192242 C-22.3450658,208.860564 -22.2054116,208.606831 -22.0894643,208.361401 L-22.0894643,208.361401 L-20.8541933,204.989159 C-20.6273086,204.322419 -20.4036471,203.612974 -20.1845587,202.862787 L-20.1845587,202.862787 L-19.9197715,201.928474 C-19.3507564,199.859994 -18.8066026,197.482247 -18.2927421,194.764876 L-18.2927421,194.764876 L-18.0569561,193.482221 L-17.8962803,192.564331 L-17.7250506,191.519131 L-17.6049996,190.730725 L-17.4902316,189.925517 L-17.3444297,188.816572 L-17.1722849,187.358458 L-17.0095536,185.801913 L-16.884869,184.473067 L-16.7639334,183.058638 L-16.6164045,181.153978 L-16.4129488,178.195137 L-16.2081355,174.84667 L-15.9651621,170.471054 L-15.4714384,161.046702 L-15.2903404,157.876371 L-15.1455705,155.53051 L-14.9987176,153.332194 L-14.8477986,151.261737 L-14.7306803,149.780077 L-14.6092676,148.350273 L-14.4827667,146.964432 L-14.3950637,146.059517 L-14.258052,144.726644 L-14.1137126,143.415247 L-14.0127596,142.546728 L-13.6868299,139.913364 C-13.1274261,135.539101 -12.4880735,131.224733 -11.7794971,126.99447 L-11.7794971,126.99447 L-11.9963133,124.85893 C-12.1063468,123.749387 -12.1539176,122.706037 -12.1197539,121.652098 C-12.7201879,119.987773 -13.0718892,118.611145 -13.2158384,117.191933 C-13.4808483,113.668595 -12.7533767,111.311742 -11.5334672,108.97786 C-10.9958298,107.949274 -10.4057562,107.042966 -9.68771799,106.05793 L-9.68771799,106.05793 L-9.30539811,105.542502 L-8.92355852,105.042154 C-8.03222278,102.876694 -7.03341659,101.340796 -5.79702677,99.8879761 L-5.79702677,99.8879761 L-5.45265245,99.0282258 L-5.26284107,98.2723192 L-4.65782739,95.7583875 L-4.52750651,95.2235353 C-4.32608453,94.5860404 -4.24115395,94.3449623 -4.14675385,94.0977904 C1.28625306,79.8723071 12.7747026,69.2728117 22.6667008,65.9577015 C28.1732886,64.1122761 35.5277099,63.2896608 41.4544365,63.8121842 C44.8164325,64.108591 47.7180914,64.8344584 50.789833,66.0300985 C51.1537819,66.1717613 51.5153709,66.3178132 51.8945392,66.4759135 L51.8945392,66.4759135 L52.6715539,66.806037 L56.26493,68.4089589 C56.6523487,68.5820851 57.0325904,68.7459789 57.401727,68.8991121 L57.401727,68.8991121 L58.0571615,69.1645514 C60.4070192,70.0925328 63.5137358,70.4831604 66.2606645,70.3458396 L66.2606645,70.3458396 L66.9124591,70.3064458 L67.87624,69.6985387 L68.2453401,69.2562887 C70.5534148,66.4379648 73.0313208,61.5019368 74.7420433,54.5239127 L74.7420433,54.5239127 L74.8208447,52.9075021 L74.7836216,51.6049251 L74.7293192,50.5202305 L74.6484193,49.2530134 L74.5171031,47.4320512 L74.391797,45.6030429 L74.3186261,44.3842573 L74.2801397,43.6334656 L74.2501922,42.9260686 L74.229032,42.2566229 L74.216914,41.6197297 L74.2140968,41.0100474 L74.220837,40.4222988 L74.2373822,39.851271 L74.2639638,39.2918038 L74.3004126,38.7434679 C74.314388,38.5596309 74.3301072,38.3759605 74.3480558,38.1870404 L74.3480558,38.1870404 L74.4059257,37.6314668 L74.4743305,37.0685604 L74.5988727,36.1381688 L74.7900736,34.8244251 C74.8637675,34.3659184 74.9441938,33.9176524 75.0372038,33.456308 C75.4187698,31.563681 75.9619756,29.7225052 76.7451614,27.8504747 C78.6778771,23.2307499 81.855441,18.9989595 86.4418364,15.2354143 C89.7082717,12.5550138 93.9835423,10.1194118 99.3440885,7.84039942 L99.3440885,7.84039942 L100.46017,7.37459396 C101.404993,6.98738908 102.38191,6.60457296 103.393867,6.22472207 L103.393867,6.22472207 L104.617425,5.77312859 C104.824339,5.69802278 105.032555,5.62306608 105.244484,5.54740224 L105.244484,5.54740224 L106.514631,5.10119453 C107.373143,4.80439106 108.252621,4.50978901 109.15533,4.2164787 L109.15533,4.2164787 L110.519601,3.77978348 C110.74994,3.70713557 110.981606,3.63460258 111.216536,3.56158381 L111.216536,3.56158381 L112.628342,3.12901836 C113.104832,2.98508232 113.586662,2.84156038 114.075606,2.6979112 L114.075606,2.6979112 L115.55128,2.27020537 L123.52948,-0.0113931586 Z" id="路径" stroke-opacity="0.597738199" stroke="#FFC640" fill-opacity="0.300617351" fill="#FFC640" fill-rule="nonzero" mask="url(#mask-6)"></path>
                        </g>
                        <g id="路径备份" transform="translate(157.652616, 72.992117)">
                            <mask id="mask-8" fill="white">
                                <use xlink:href="#path-7"></use>
                            </mask>
                            <use id="蒙版" fill-opacity="0" fill="#FFE9A8" xlink:href="#path-7"></use>
                            <path d="M227.32948,-73.0035104 L253.195561,-40.8367513 L221.884697,-35.7543781 L221.253508,-35.658245 C217.96913,-35.1426201 215.629236,-34.3703724 214.234398,-33.4867853 C213.680594,-33.1359681 213.484007,-32.9636371 213.400209,-32.6957354 C212.95337,-31.2671851 212.600412,-29.4145675 212.327258,-27.0989984 L212.327258,-27.0989984 L212.227679,-26.200887 L212.091704,-24.7614852 C212.063421,-24.4310129 212.03637,-24.0929511 212.010677,-23.7492761 L212.010677,-23.7492761 L211.922668,-22.5029525 L211.84125,-21.1351842 L211.576778,-15.444205 L211.490741,-13.6675217 L211.425146,-12.4623864 L211.356863,-11.3545379 L211.284278,-10.3330849 L211.205888,-9.38848658 L211.149317,-8.79321946 L211.057495,-7.95100027 L210.990569,-7.41533043 L210.918601,-6.89746085 L210.841319,-6.39519665 L210.620236,-5.17917029 C207.597151,7.04576384 202.118941,17.6776951 197.024926,23.6659439 C190.46923,31.3724644 181.489035,34.3549832 171.239712,33.2580668 C165.348177,32.6275353 159.26459,30.7827857 151.580485,27.5445021 L151.580485,27.5445021 L150.292445,26.9951806 C150.07496,26.9013683 149.856186,26.8064823 149.634383,26.7097692 L149.634383,26.7097692 L148.298237,26.1212284 L146.929433,25.5068602 L146.433632,25.2806011 L144.03381,25.0164609 L143.11655,25.004759 L141.332497,25.0019774 L140.336493,24.996044 L137.778004,24.8548981 L136.418785,24.7330744 L135.809596,24.6823196 L134.847905,24.8494745 C134.300293,25.0690487 134.167692,25.1357077 134.052556,25.2787596 L134.052556,25.2787596 L133.484611,26.0803408 C132.55907,27.4250893 131.58223,29.5021874 130.618695,32.4560762 L130.618695,32.4560762 L129.592411,35.1434702 L128.220039,38.8223425 L127.639389,40.4244752 L127.245592,41.5403769 L127.013871,42.2161016 L126.812199,42.8244289 C126.146675,44.8775985 125.566007,46.903345 125.081216,48.9057144 L125.081216,48.9057144 L125.022753,50.3292935 L125.004945,51.3048475 L124.991004,53.465613 L124.971925,55.5243578 L124.95277,56.4552727 L124.925432,57.330346 L124.888871,58.1582598 C124.87492,58.4297324 124.859199,58.6958802 124.841204,58.9630452 L124.841204,58.9630452 L124.781874,59.7451357 C124.494091,62.8495102 124.076339,64.9178326 123.341546,67.6395289 L123.341546,67.6395289 L122.93788,69.1282182 L122.794957,69.681635 L122.22463,73.6337769 L122.194565,74.8129107 L122.185649,76.0437479 L122.189604,77.4285311 L122.217561,80.0704843 L122.350231,87.792041 L122.41797,92.1472358 L122.446998,94.7966194 L122.462269,97.2801751 L122.463054,99.6301211 L122.44863,101.878138 L122.427388,103.517252 L122.396875,105.130922 L122.356803,106.732142 L122.325653,107.767622 C122.303472,108.459607 122.278479,109.154525 122.250564,109.857302 C121.927791,117.983151 121.216014,125.126149 119.98343,131.438994 C117.232485,145.528331 112.600115,158.562724 105.21009,165.909965 C101.956306,169.144911 98.0330913,171.162508 93.7648047,172.05924 C89.6716023,172.919188 86.105785,172.728519 81.8576674,171.948065 L81.8576674,171.948065 L80.3875137,171.667753 L79.5514169,171.612705 L78.8369603,171.547091 L78.029416,171.453086 L77.0367788,171.311044 L76.3135586,171.187203 L75.5943221,171.04778 L74.9924512,170.917859 L74.2735569,170.750132 L73.5581018,170.568902 L72.845156,170.375085 L72.1329208,170.169393 L71.4175718,169.951867 L70.3671872,169.615119 L69.2560869,169.240853 L68.1087525,168.839117 L66.8220067,168.375038 L63.8885898,167.290489 L62.9004726,166.93449 L62.2174962,166.698597 L61.3281426,166.407231 L60.2820019,166.097399 L58.7239145,166.258872 C46.3151193,172.363986 36.5148731,178.499733 28.1289367,185.463724 L28.1289367,185.463724 L27.9658324,186.224977 L27.816047,187.060316 C27.1393088,190.728954 26.3900781,193.238532 25.0125021,195.989424 C23.6427147,198.724762 22.1335604,200.793042 19.7549001,203.326749 L19.7549001,203.326749 L19.2565121,203.850401 L18.2314707,204.903514 C17.9529816,206.460293 18.0104389,207.255624 18.3073644,208.49963 L18.3073644,208.49963 L18.78196,210.339358 L18.9812406,211.144871 L19.1112205,211.703606 C19.1781882,212.001971 19.2401196,212.294518 19.2983885,212.588454 C20.8770152,220.551803 19.176366,227.65892 14.1800446,235.573881 L14.1800446,235.573881 L13.9071886,236.003031 L13.4271726,236.746015 L12.6846184,237.862742 L12.155836,238.634509 L11.5743491,239.461102 L10.7938539,240.5339 L10.1829907,241.346461 L9.31800407,242.457369 L8.86912799,243.016528 L8.37653928,243.617544 L7.81498394,244.28782 L6.9262275,245.316934 L6.28371142,246.039448 L5.62728338,246.760528 L4.95638929,247.481198 L4.270394,248.202601 L3.5685728,248.925994 L2.84997106,249.652872 L2.04477313,250.452555 L1.29511797,251.184596 L0.525853211,251.924755 L-0.264282698,252.674745 L-1.08852142,253.447335 L-2.34949909,254.613116 L-3.65954039,255.807063 L-4.58876339,256.645167 L-6.49518627,258.347198 L-10.2490902,261.667792 L-11.894801,263.139963 L-12.77022,263.931728 L-13.8759808,264.943508 L-14.8127901,265.81716 L-15.7443649,266.703254 L-16.3273417,267.270296 L-17.115391,268.054301 L-17.6259485,268.576743 L-18.123436,269.09597 L-18.6150349,269.622764 L-19.004785,270.048334 L-19.4764342,270.573854 C-19.7010463,270.826694 -19.9287859,271.086786 -20.162055,271.356847 C-21.067543,272.405149 -21.9731135,273.303109 -22.9281587,274.12032 C-23.2681075,274.411207 -23.593546,274.674789 -23.941865,274.94553 L-23.941865,274.94553 L-24.7778288,276.509057 L-24.992122,277.000941 L-25.2268124,277.553167 L-25.4727275,278.144378 L-25.8618231,279.101965 L-26.2720981,280.136487 L-26.7009708,281.241128 L-26.9955404,282.012086 L-27.3819465,283.037165 L-27.3620284,284.761417 L-27.3201978,285.726261 L-27.207425,287.925667 L-27.1516458,289.332282 L-27.1252746,290.352849 C-27.0545914,294.173886 -27.3438484,297.13158 -28.1793603,300.368253 C-28.4425917,301.38798 -28.7249207,302.352024 -29.0425898,303.306664 L-29.0425898,303.306664 L-29.329065,304.137469 C-29.4776027,304.553607 -29.6331009,304.967906 -29.7983019,305.387526 L-29.7983019,305.387526 L-30.0846964,306.095145 L-30.2989468,306.60454 C-30.5845123,307.270483 -30.8971608,307.955526 -31.2665516,308.723922 L-31.2665516,308.723922 L-31.6586222,309.523292 L-32.008126,310.215446 L-32.4437813,311.057153 L-32.9399914,311.993969 L-33.4190741,312.88185 L-34.6689689,315.159226 L-35.0371146,315.83852 L-35.3661705,316.455881 L-35.7158485,317.127256 L-36.1775127,318.05278 L-36.5241321,318.803788 L-36.9492808,322.940291 L-36.8769151,323.438168 L-36.7806341,324.058671 L-36.6883529,324.619605 L-36.4933529,325.749075 L-36.0656927,328.133438 L-35.8620582,329.31338 L-35.6767864,330.462048 L-35.4926795,331.737337 L-35.3593549,332.79734 C-35.1601323,334.486919 -35.0459806,336.084919 -35.0192347,337.654484 C-34.9425556,340.553635 -34.6680452,343.224831 -34.3269393,344.890736 C-32.2636833,348.454582 -31.4431395,351.813316 -31.9632133,355.752355 C-32.557643,359.599411 -33.9780607,362.011735 -35.9801221,364.18689 L-35.9801221,364.18689 L-36.4975948,364.729755 L-37.1442173,365.730493 L-37.7008775,366.606233 L-38.3971488,367.723404 L-39.0229721,368.752857 L-39.4336448,369.44645 L-39.7847087,370.056995 L-40.0592451,370.554926 L-40.7004558,372.13669 L-41.9216068,375.865802 L-42.2161422,376.728757 L-42.5027633,377.540635 C-43.902504,381.427712 -45.1484927,383.672563 -47.6745096,386.077329 C-50.1455999,388.429806 -52.4984744,389.62972 -55.7626184,390.614291 L-55.7626184,390.614291 L-56.580617,390.851433 C-56.8608045,390.929664 -57.1477497,391.006974 -57.4453095,391.084739 L-57.4453095,391.084739 L-58.3465381,391.313785 L-60.5879152,391.862856 L-63.0023958,392.716119 L-66.7334792,392.758835 L-71.8316748,392.803898 L-76.2729291,392.822927 L-78.0671524,392.822909 L-80.1666104,392.814958 L-82.0505996,392.798001 L-84.1041097,392.763931 L-85.1766363,392.736536 C-90.7321669,392.57188 -95.46916,391.904449 -100.537492,390.768046 L-100.537492,390.768046 L-103.556131,390.05619 C-103.654556,391.437103 -103.841053,392.618818 -104.252801,393.889503 L-104.252801,393.889503 L-109.558313,411.05519 L-139.314545,398.83696 L-134.757261,384.082268 L-134.371747,382.660705 L-132.414927,375.031689 L-132.124434,373.953773 L-131.839569,372.924264 C-131.792338,372.756105 -131.745264,372.589834 -131.697658,372.423123 L-131.697658,372.423123 L-131.417684,371.459986 C-130.005276,366.692217 -128.642251,363.53498 -126.495204,360.887651 L-126.495204,360.887651 L-126.018659,360.193842 C-125.39353,359.261089 -124.659777,358.376959 -123.774784,357.540459 C-120.085427,354.053262 -115.295272,352.623734 -108.517237,352.289443 C-105.373058,352.134373 -102.422958,352.684651 -99.2407969,353.754907 L-99.2407969,353.754907 L-98.0949298,354.153237 L-97.4665711,354.387894 L-96.632346,354.718618 L-95.4160894,355.22635 L-92.8083298,356.348016 L-91.9102439,356.730319 L-91.13869,357.049572 L-90.4993239,357.303114 L-87.1227091,358.07277 L-86.5340519,358.063796 L-85.2124437,358.074633 L-83.9946719,358.117066 L-82.8908271,358.173851 L-80.5368779,358.325055 L-77.0256528,358.572075 L-75.8324538,358.646106 L-75.1162507,358.684459 L-74.4561487,358.714176 L-73.8461901,358.735386 L-73.2822617,358.748212 L-72.4961774,358.752018 L-71.9928625,358.743797 C-71.5250699,358.723581 -71.2471403,358.708072 -71.0524696,358.693129 L-71.0524696,358.693129 L-70.6542624,357.635932 C-70.2074711,356.334522 -69.6854177,355.289601 -68.9443846,353.99925 L-68.9443846,353.99925 L-68.572712,353.363801 L-68.0900126,352.559913 C-68.1944862,352.124163 -68.2318374,351.954496 -68.270208,351.771262 C-68.6600911,349.838701 -68.8015759,348.181779 -68.6382085,346.366385 C-68.5296054,345.15955 -68.3804723,344.166023 -68.1440353,343.050916 L-68.1440353,343.050916 L-67.9757351,342.298404 L-67.6686268,341.056003 L-67.1196822,338.954907 C-66.9743721,337.757775 -66.9920303,337.457044 -67.0272745,337.117376 L-67.0272745,337.117376 L-67.0976049,336.518 L-67.1637586,336.022364 L-67.4182106,334.448947 L-67.9325814,331.570599 L-68.1778903,330.144876 L-68.3406723,329.146721 L-68.4969829,328.127107 L-68.6818738,326.792654 L-68.8044912,325.781265 C-69.2594047,321.730985 -69.1812644,318.404569 -68.5192792,314.649884 C-67.8102902,310.6286 -66.6897121,307.279039 -64.7177231,303.210579 L-64.7177231,303.210579 L-64.3420007,302.449556 L-63.8347152,301.453083 L-63.114611,300.085689 L-62.290924,298.566476 L-61.3021218,296.763589 L-60.8356572,295.898354 L-60.3804297,295.031711 L-59.7118469,293.671612 L-59.0726297,290.477455 L-59.0896148,289.960452 L-59.1153533,289.398273 L-59.2246461,287.25135 L-59.2647648,286.352753 L-59.2993917,285.402188 L-59.3233579,284.471174 L-59.3356233,283.35867 L-59.3321919,282.644252 L-59.3181852,281.910088 C-59.2144295,278.182724 -58.6481221,275.103387 -57.4180313,271.780789 L-57.4180313,271.780789 L-57.2066366,270.814607 L-56.7210442,268.299234 L-56.5488673,267.45431 L-56.37796,266.667648 C-55.8254662,264.217202 -55.2329249,262.512572 -54.1234304,260.490099 C-52.4838449,257.501335 -50.7276424,255.452911 -48.0997067,253.08339 L-48.0997067,253.08339 L-47.3348428,252.40569 L-46.9341664,252.058734 L-45.6932569,250.994649 L-45.0711555,250.444773 C-44.6055101,250.022162 -44.2664798,249.681809 -43.9621572,249.32964 L-43.9621572,249.32964 L-43.3791742,248.660616 L-42.7271624,247.925357 L-42.0691878,247.197789 L-41.4021982,246.475235 L-40.5939478,245.619375 L-39.6815219,244.678649 L-38.8325473,243.824949 L-37.8547314,242.865323 L-37.0165976,242.05983 L-36.2269911,241.313365 L-35.3943776,240.537343 L-34.1019434,239.350745 L-32.7155635,238.096669 L-31.1073142,236.659097 L-26.9333668,232.96518 L-26.0876958,232.210603 L-24.877301,231.12173 L-23.7469577,230.093018 L-22.6802054,229.108549 L-22.0177307,228.488984 L-21.3870529,227.892103 L-20.7258606,227.25767 L-19.890195,226.438939 L-19.3988481,225.948606 L-18.8684942,225.411339 L-18.3790645,224.905071 L-17.9723195,224.475542 L-17.504724,223.972243 L-17.0411749,223.463186 L-16.6819683,223.055528 L-16.3368637,222.657081 L-15.9512997,222.201049 L-15.447143,221.582651 L-15.0964835,221.139555 L-14.4266669,220.253373 L-13.8181763,219.404808 L-13.3485601,218.718462 L-12.8841103,218.012284 L-12.6068774,216.804985 C-14.3329704,209.76132 -14.3395034,203.653231 -12.5295953,195.815189 L-12.5295953,195.815189 L-12.3658251,195.121828 C-11.2173611,190.363842 -9.21236412,186.838421 -5.73356244,183.013311 L-5.73356244,183.013311 L-5.13599541,182.367974 L-4.4440712,181.64293 L-3.52987799,180.702745 L-3.16906548,178.644988 L-3.03191787,177.893086 L-2.85505634,176.978242 C-1.57881887,170.617518 0.431731662,166.421034 4.75090736,162.609205 C16.4815621,152.256478 29.9783418,143.668146 47.191883,135.385884 C53.1989006,132.495619 59.2627782,132.038236 66.214596,133.615511 L66.214596,133.615511 L67.0718612,133.819463 L67.6809389,133.973769 C68.0054145,134.058455 68.3332622,134.147463 68.6691709,134.242042 L68.6691709,134.242042 L69.6445287,134.525847 L70.6988752,134.852092 L71.5992014,135.14441 L73.0158349,135.62799 L74.0234666,135.986674 L77.0523164,137.103676 L78.3781617,137.574535 L78.9783092,137.778911 L79.5251429,137.958926 L80.2489167,137.668042 L80.5854564,137.200124 C81.4549342,135.868447 81.5945884,135.614714 81.7105357,135.369283 L81.7105357,135.369283 L82.9458067,131.997041 C83.1726914,131.330302 83.3963529,130.620857 83.6154413,129.87067 L83.6154413,129.87067 L83.8802285,128.936357 C84.4492436,126.867877 84.9933974,124.49013 85.5072579,121.772758 L85.5072579,121.772758 L85.7430439,120.490104 L85.9037197,119.572213 L86.0749494,118.527014 L86.1950004,117.738608 L86.3097684,116.9334 L86.4555703,115.824455 L86.6277151,114.366341 L86.7904464,112.809796 L86.915131,111.48095 L87.0360666,110.06652 L87.1835955,108.161861 L87.3870512,105.203019 L87.5918645,101.854553 L87.8348379,97.4789371 L88.3285616,88.0545851 L88.5096596,84.8842542 L88.6544295,82.538393 L88.8012824,80.340077 L88.9522014,78.2696193 L89.0693197,76.7879598 L89.1907324,75.3581562 L89.3172333,73.9723143 L89.4049363,73.0673996 L89.541948,71.7345265 L89.6862874,70.4231294 L89.7872404,69.5546109 L90.1131701,66.9212462 C90.6725739,62.5469832 91.3119265,58.2326154 92.0205029,54.0023527 L92.0205029,54.0023527 L91.8036867,51.8668131 C91.6936532,50.7572698 91.6460824,49.7139195 91.6802461,48.6599804 C91.0798121,46.9956556 90.7281108,45.6190281 90.5841616,44.1998157 C90.3191517,40.6764782 91.0466233,38.3196243 92.2665328,35.9857431 C92.8041702,34.9571569 93.3942438,34.050849 94.112282,33.0658128 L94.112282,33.0658128 L94.4946019,32.5503846 L94.8764415,32.0500367 C95.7677772,29.8845763 96.7665834,28.3486785 98.0029732,26.8958589 L98.0029732,26.8958589 L98.3473476,26.0361085 L98.5371589,25.2802019 L99.1421726,22.7662703 L99.2724935,22.231418 C99.4739155,21.5939232 99.5588461,21.352845 99.6532461,21.1056731 C105.086253,6.88018982 116.574703,-3.71930556 126.466701,-7.03441575 C131.973289,-8.87984121 139.32771,-9.70245645 145.254436,-9.17993303 C148.616432,-8.8835263 151.518091,-8.15765885 154.589833,-6.96201881 C154.953782,-6.82035593 155.315371,-6.67430412 155.694539,-6.51620375 L155.694539,-6.51620375 L156.471554,-6.18608025 L160.06493,-4.58315839 C160.452349,-4.41003216 160.83259,-4.24613842 161.201727,-4.09300516 L161.201727,-4.09300516 L161.857162,-3.82756592 C164.207019,-2.89958449 167.313736,-2.50895688 170.060664,-2.64627767 L170.060664,-2.64627767 L170.712459,-2.68567151 L171.67624,-3.29357854 L172.04534,-3.73582856 C174.353415,-6.55415243 176.831321,-11.4901805 178.542043,-18.4682045 L178.542043,-18.4682045 L178.620845,-20.0846151 L178.583622,-21.3871922 L178.529319,-22.4718867 L178.448419,-23.7391039 L178.317103,-25.5600661 L178.191797,-27.3890743 L178.118626,-28.60786 L178.08014,-29.3586517 L178.050192,-30.0660487 L178.029032,-30.7354944 L178.016914,-31.3723876 L178.014097,-31.9820699 L178.020837,-32.5698185 L178.037382,-33.1408463 L178.063964,-33.7003135 L178.100413,-34.2486494 C178.114388,-34.4324864 178.130107,-34.6161568 178.148056,-34.8050769 L178.148056,-34.8050769 L178.205926,-35.3606505 L178.274331,-35.9235568 L178.398873,-36.8539485 L178.590074,-38.1676922 C178.663768,-38.6261989 178.744194,-39.0744649 178.837204,-39.5358093 C179.21877,-41.4284363 179.761976,-43.2696121 180.545161,-45.1416426 C182.477877,-49.7613674 185.655441,-53.9931578 190.241836,-57.756703 C193.508272,-60.4371034 197.783542,-62.8727055 203.144088,-65.1517179 L203.144088,-65.1517179 L204.26017,-65.6175233 C205.204993,-66.0047282 206.18191,-66.3875443 207.193867,-66.7673952 L207.193867,-66.7673952 L208.417425,-67.2189887 C208.624339,-67.2940945 208.832555,-67.3690512 209.044484,-67.444715 L209.044484,-67.444715 L210.314631,-67.8909227 C211.173143,-68.1877262 212.052621,-68.4823283 212.95533,-68.7756386 L212.95533,-68.7756386 L214.319601,-69.2123338 C214.54994,-69.2849817 214.781606,-69.3575147 215.016536,-69.4305335 L215.016536,-69.4305335 L216.428342,-69.8630989 C216.904832,-70.007035 217.386662,-70.1505569 217.875606,-70.2942061 L217.875606,-70.2942061 L219.35128,-70.7219119 L227.32948,-73.0035104 Z" id="路径" stroke-opacity="0.5" stroke="#FDFF04" fill-opacity="0.298377404" fill="#FDFF04" fill-rule="nonzero" mask="url(#mask-8)"></path>
                        </g>
                        <path d="M110.49082,450.388269 C113.487268,449.857978 115.848422,449.592832 117.574281,449.592832 C114.870605,455.529554 110.23005,459.051911 103.652616,460.159902 C107.476272,461.595905 108.470139,461.739044 110.49082,467.288414 C115.830969,464.075818 119.282895,458.442436 120.846597,450.388269 C122.612337,450.970035 124.214343,452.004211 125.652616,453.490796 C124.565711,451.272636 122.963704,447.871842 120.846597,443.288414 C118.665053,445.811092 115.213127,448.17771 110.49082,450.388269 Z" id="路径-6" fill="url(#linearGradient-9)" fill-rule="nonzero" transform="translate(114.652616, 455.288414) rotate(-90.000000) translate(-114.652616, -455.288414) "></path>
                        <path d="M70.4908197,433.388269 C73.487268,432.857978 75.8484218,432.592832 77.5742812,432.592832 C74.8706047,438.529554 70.2300498,442.051911 63.6526165,443.159902 C67.476272,444.595905 68.4701394,444.739044 70.4908197,450.288414 C75.8309694,447.075818 79.2828951,441.442436 80.846597,433.388269 C82.612337,433.970035 84.2143435,435.004211 85.6526165,436.490796 C84.5657109,434.272636 82.9637044,430.871842 80.846597,426.288414 C78.6650531,428.811092 75.2131274,431.17771 70.4908197,433.388269 Z" id="路径-6备份-6" fill="url(#linearGradient-9)" fill-rule="nonzero" transform="translate(74.652616, 438.288414) scale(-1, 1) rotate(-90.000000) translate(-74.652616, -438.288414) "></path>
                        <path d="M86.4908197,376.388269 C89.487268,375.857978 91.8484218,375.592832 93.5742812,375.592832 C90.8706047,381.529554 86.2300498,385.051911 79.6526165,386.159902 C83.476272,387.595905 84.4701394,387.739044 86.4908197,393.288414 C91.8309694,390.075818 95.2828951,384.442436 96.846597,376.388269 C98.612337,376.970035 100.214343,378.004211 101.652616,379.490796 C100.565711,377.272636 98.9637044,373.871842 96.846597,369.288414 C94.6650531,371.811092 91.2131274,374.17771 86.4908197,376.388269 Z" id="路径-6备份-7" fill="url(#linearGradient-9)" fill-rule="nonzero" transform="translate(90.652616, 381.288414) scale(-1, 1) rotate(-90.000000) translate(-90.652616, -381.288414) "></path>
                        <path d="M110.49082,323.388269 C113.487268,322.857978 115.848422,322.592832 117.574281,322.592832 C114.870605,328.529554 110.23005,332.051911 103.652616,333.159902 C107.476272,334.595905 108.470139,334.739044 110.49082,340.288414 C115.830969,337.075818 119.282895,331.442436 120.846597,323.388269 C122.612337,323.970035 124.214343,325.004211 125.652616,326.490796 C124.565711,324.272636 122.963704,320.871842 120.846597,316.288414 C118.665053,318.811092 115.213127,321.17771 110.49082,323.388269 Z" id="路径-6备份-8" fill="url(#linearGradient-9)" fill-rule="nonzero" transform="translate(114.652616, 328.288414) scale(-1, 1) rotate(-90.000000) translate(-114.652616, -328.288414) "></path>
                        <path d="M129.49082,382.388269 C132.487268,381.857978 134.848422,381.592832 136.574281,381.592832 C133.870605,387.529554 129.23005,391.051911 122.652616,392.159902 C126.476272,393.595905 127.470139,393.739044 129.49082,399.288414 C134.830969,396.075818 138.282895,390.442436 139.846597,382.388269 C141.612337,382.970035 143.214343,384.004211 144.652616,385.490796 C143.565711,383.272636 141.963704,379.871842 139.846597,375.288414 C137.665053,377.811092 134.213127,380.17771 129.49082,382.388269 Z" id="路径-6备份-3" fill="url(#linearGradient-9)" fill-rule="nonzero" transform="translate(133.652616, 387.288414) rotate(-90.000000) translate(-133.652616, -387.288414) "></path>
                        <path d="M150.49082,327.388269 C153.487268,326.857978 155.848422,326.592832 157.574281,326.592832 C154.870605,332.529554 150.23005,336.051911 143.652616,337.159902 C147.476272,338.595905 148.470139,338.739044 150.49082,344.288414 C155.830969,341.075818 159.282895,335.442436 160.846597,327.388269 C162.612337,327.970035 164.214343,329.004211 165.652616,330.490796 C164.565711,328.272636 162.963704,324.871842 160.846597,320.288414 C158.665053,322.811092 155.213127,325.17771 150.49082,327.388269 Z" id="路径-6备份-4" fill="url(#linearGradient-9)" fill-rule="nonzero" transform="translate(154.652616, 332.288414) rotate(-90.000000) translate(-154.652616, -332.288414) "></path>
                        <path d="M274.49082,196.388269 C277.487268,195.857978 279.848422,195.592832 281.574281,195.592832 C278.870605,201.529554 274.23005,205.051911 267.652616,206.159902 C271.476272,207.595905 272.470139,207.739044 274.49082,213.288414 C279.830969,210.075818 283.282895,204.442436 284.846597,196.388269 C286.612337,196.970035 288.214343,198.004211 289.652616,199.490796 C288.565711,197.272636 286.963704,193.871842 284.846597,189.288414 C282.665053,191.811092 279.213127,194.17771 274.49082,196.388269 Z" id="路径-6备份-11" fill="url(#linearGradient-10)" fill-rule="nonzero" transform="translate(278.652616, 201.288414) rotate(-90.000000) translate(-278.652616, -201.288414) "></path>
                        <path d="M347.49082,98.3882688 C350.487268,97.8579778 352.848422,97.5928322 354.574281,97.5928322 C351.870605,103.529554 347.23005,107.051911 340.652616,108.159902 C344.476272,109.595905 345.470139,109.739044 347.49082,115.288414 C352.830969,112.075818 356.282895,106.442436 357.846597,98.3882688 C359.612337,98.9700349 361.214343,100.004211 362.652616,101.490796 C361.565711,99.2726356 359.963704,95.8718416 357.846597,91.2884136 C355.665053,93.8110918 352.213127,96.1777102 347.49082,98.3882688 Z" id="路径-6备份-12" fill="url(#linearGradient-9)" fill-rule="nonzero" transform="translate(351.652616, 103.288414) rotate(-90.000000) translate(-351.652616, -103.288414) "></path>
                        <path d="M371.49082,46.3882688 C374.487268,45.8579778 376.848422,45.5928322 378.574281,45.5928322 C375.870605,51.5295542 371.23005,55.0519109 364.652616,56.1599023 C368.476272,57.5959054 369.470139,57.7390437 371.49082,63.2884136 C376.830969,60.0758179 380.282895,54.4424363 381.846597,46.3882688 C383.612337,46.9700349 385.214343,48.0042105 386.652616,49.4907956 C385.565711,47.2726356 383.963704,43.8718416 381.846597,39.2884136 C379.665053,41.8110918 376.213127,44.1777102 371.49082,46.3882688 Z" id="路径-6备份-17" fill="url(#linearGradient-9)" fill-rule="nonzero" transform="translate(375.652616, 51.288414) rotate(-90.000000) translate(-375.652616, -51.288414) "></path>
                        <path d="M331.49082,35.3882688 C334.487268,34.8579778 336.848422,34.5928322 338.574281,34.5928322 C335.870605,40.5295542 331.23005,44.0519109 324.652616,45.1599023 C328.476272,46.5959054 329.470139,46.7390437 331.49082,52.2884136 C336.830969,49.0758179 340.282895,43.4424363 341.846597,35.3882688 C343.612337,35.9700349 345.214343,37.0042105 346.652616,38.4907956 C345.565711,36.2726356 343.963704,32.8718416 341.846597,28.2884136 C339.665053,30.8110918 336.213127,33.1777102 331.49082,35.3882688 Z" id="路径-6备份-18" fill="url(#linearGradient-9)" fill-rule="nonzero" transform="translate(335.652616, 40.288414) scale(-1, 1) rotate(-90.000000) translate(-335.652616, -40.288414) "></path>
                        <path d="M293.49082,65.3882688 C296.487268,64.8579778 298.848422,64.5928322 300.574281,64.5928322 C297.870605,70.5295542 293.23005,74.0519109 286.652616,75.1599023 C290.476272,76.5959054 291.470139,76.7390437 293.49082,82.2884136 C298.830969,79.0758179 302.282895,73.4424363 303.846597,65.3882688 C305.612337,65.9700349 307.214343,67.0042105 308.652616,68.4907956 C307.565711,66.2726356 305.963704,62.8718416 303.846597,58.2884136 C301.665053,60.8110918 298.213127,63.1777102 293.49082,65.3882688 Z" id="路径-6备份-19" fill="url(#linearGradient-9)" fill-rule="nonzero" transform="translate(297.652616, 70.288414) scale(-1, 1) rotate(-90.000000) translate(-297.652616, -70.288414) "></path>
                        <path d="M229.49082,189.388269 C232.487268,188.857978 234.848422,188.592832 236.574281,188.592832 C233.870605,194.529554 229.23005,198.051911 222.652616,199.159902 C226.476272,200.595905 227.470139,200.739044 229.49082,206.288414 C234.830969,203.075818 238.282895,197.442436 239.846597,189.388269 C241.612337,189.970035 243.214343,191.004211 244.652616,192.490796 C243.565711,190.272636 241.963704,186.871842 239.846597,182.288414 C237.665053,184.811092 234.213127,187.17771 229.49082,189.388269 Z" id="路径-6备份-14" fill="url(#linearGradient-10)" fill-rule="nonzero" transform="translate(233.652616, 194.288414) scale(-1, 1) rotate(-90.000000) translate(-233.652616, -194.288414) "></path>
                        <path d="M242.49082,120.388269 C245.487268,119.857978 247.848422,119.592832 249.574281,119.592832 C246.870605,125.529554 242.23005,129.051911 235.652616,130.159902 C239.476272,131.595905 240.470139,131.739044 242.49082,137.288414 C247.830969,134.075818 251.282895,128.442436 252.846597,120.388269 C254.612337,120.970035 256.214343,122.004211 257.652616,123.490796 C256.565711,121.272636 254.963704,117.871842 252.846597,113.288414 C250.665053,115.811092 247.213127,118.17771 242.49082,120.388269 Z" id="路径-6备份-16" fill="url(#linearGradient-10)" fill-rule="nonzero" transform="translate(246.652616, 125.288414) scale(-1, 1) rotate(-90.000000) translate(-246.652616, -125.288414) "></path>
                        <path d="M181.49082,222.388269 C184.487268,221.857978 186.848422,221.592832 188.574281,221.592832 C185.870605,227.529554 181.23005,231.051911 174.652616,232.159902 C178.476272,233.595905 179.470139,233.739044 181.49082,239.288414 C186.830969,236.075818 190.282895,230.442436 191.846597,222.388269 C193.612337,222.970035 195.214343,224.004211 196.652616,225.490796 C195.565711,223.272636 193.963704,219.871842 191.846597,215.288414 C189.665053,217.811092 186.213127,220.17771 181.49082,222.388269 Z" id="路径-6备份-15" fill="url(#linearGradient-10)" fill-rule="nonzero" transform="translate(185.652616, 227.288414) scale(-1, 1) rotate(-90.000000) translate(-185.652616, -227.288414) "></path>
                        <path d="M285.49082,124.388269 C288.487268,123.857978 290.848422,123.592832 292.574281,123.592832 C289.870605,129.529554 285.23005,133.051911 278.652616,134.159902 C282.476272,135.595905 283.470139,135.739044 285.49082,141.288414 C290.830969,138.075818 294.282895,132.442436 295.846597,124.388269 C297.612337,124.970035 299.214343,126.004211 300.652616,127.490796 C299.565711,125.272636 297.963704,121.871842 295.846597,117.288414 C293.665053,119.811092 290.213127,122.17771 285.49082,124.388269 Z" id="路径-6备份-13" fill="url(#linearGradient-10)" fill-rule="nonzero" transform="translate(289.652616, 129.288414) rotate(-90.000000) translate(-289.652616, -129.288414) "></path>
                    </g>
                </g>
            </g>
        </g>
    </g>
</svg>