<?xml version="1.0" encoding="UTF-8"?>
<svg version="1.1" xmlns:xlink="http://www.w3.org/1999/xlink" width="361px" height="180px" xmlns="http://www.w3.org/2000/svg">
  <defs>
    <mask fill="white" id="clip50">
      <path d="M 19.3203812316715 38.7412587412613  L 4.66213625084569 23.2490586336746  L 0.793988269795544 19.1608391608405  L 0.793988269795544 180  L 360.7353372434 180  L 360.7353372434 0.979020979019695  L 337.79789833822 38.7412587412613  L 316.62487781036 101.678321678324  L 306.920576735092 101.678321678324  L 298.980694037144 125.454545454545  L 273.396627565984 149  L 245.165933528836 149  L 225.7573313783 149.230769230773  L 214.288611925708 159.02097902098  L 182.52908113392 149  L 148.122922776148 149  L 132.243157380256 149.230769230773  L 103.130254154448 125  L 89.8971163245357 125  L 76.6639784946237 135.244755244759  L 56.3731671554236 125.454545454545  L 48.4332844574796 101.678321678324  L 38.7289833822076 101.678321678324  L 19.3203812316715 38.7412587412613  Z " fill-rule="evenodd"/>
    </mask>
  </defs>
  <g transform="matrix(1 0 0 1 -63 -235 )">
    <path d="M 19.3203812316715 38.7412587412613  L 4.66213625084569 23.2490586336746  L 0.793988269795544 19.1608391608405  L 0.793988269795544 180  L 360.7353372434 180  L 360.7353372434 0.979020979019695  L 337.79789833822 38.7412587412613  L 316.62487781036 101.678321678324  L 306.920576735092 101.678321678324  L 298.980694037144 125.454545454545  L 273.396627565984 149  L 245.165933528836 149  L 225.7573313783 149.230769230773  L 214.288611925708 159.02097902098  L 182.52908113392 149  L 148.122922776148 149  L 132.243157380256 149.230769230773  L 103.130254154448 125  L 89.8971163245357 125  L 76.6639784946237 135.244755244759  L 56.3731671554236 125.454545454545  L 48.4332844574796 101.678321678324  L 38.7289833822076 101.678321678324  L 19.3203812316715 38.7412587412613  Z " fill-rule="nonzero" fill="#8d7c7c" stroke="none" fill-opacity="0.725490196078431" transform="matrix(1 0 0 1 63 235 )"/>
    <path d="M 19.3203812316715 38.7412587412613  L 4.66213625084569 23.2490586336746  L 0.793988269795544 19.1608391608405  L 0.793988269795544 180  L 360.7353372434 180  L 360.7353372434 0.979020979019695  L 337.79789833822 38.7412587412613  L 316.62487781036 101.678321678324  L 306.920576735092 101.678321678324  L 298.980694037144 125.454545454545  L 273.396627565984 149  L 245.165933528836 149  L 225.7573313783 149.230769230773  L 214.288611925708 159.02097902098  L 182.52908113392 149  L 148.122922776148 149  L 132.243157380256 149.230769230773  L 103.130254154448 125  L 89.8971163245357 125  L 76.6639784946237 135.244755244759  L 56.3731671554236 125.454545454545  L 48.4332844574796 101.678321678324  L 38.7289833822076 101.678321678324  L 19.3203812316715 38.7412587412613  Z " stroke-width="2" stroke="#797979" fill="none" transform="matrix(1 0 0 1 63 235 )" mask="url(#clip50)"/>
  </g>
</svg>